<mxfile host="Electron" modified="2023-08-21T21:07:34.911Z" agent="Mozilla/5.0 (Windows NT 10.0; Win64; x64) AppleWebKit/537.36 (KHTML, like Gecko) draw.io/21.6.5 Chrome/114.0.5735.243 Electron/25.3.1 Safari/537.36" etag="Sv9nT_Nq-vmx3dCm2UxP" version="21.6.5" type="device" pages="4">
  <diagram name="Pagina-1" id="gP3cx5WkScqhTS9X_ovk">
    <mxGraphModel dx="1466" dy="770" grid="0" gridSize="10" guides="1" tooltips="1" connect="1" arrows="1" fold="1" page="1" pageScale="1" pageWidth="4681" pageHeight="3300" math="0" shadow="0">
      <root>
        <mxCell id="0" />
        <mxCell id="1" parent="0" />
        <mxCell id="hXZOnrrkPScTFL7X2g5N-37" value="" style="edgeStyle=orthogonalEdgeStyle;rounded=0;sketch=1;hachureGap=4;jiggle=2;curveFitting=1;orthogonalLoop=1;jettySize=auto;html=1;fontFamily=Architects Daughter;fontSource=https%3A%2F%2Ffonts.googleapis.com%2Fcss%3Ffamily%3DArchitects%2BDaughter;fontSize=16;" edge="1" parent="1" source="hXZOnrrkPScTFL7X2g5N-2" target="hXZOnrrkPScTFL7X2g5N-8">
          <mxGeometry relative="1" as="geometry" />
        </mxCell>
        <mxCell id="hXZOnrrkPScTFL7X2g5N-2" value="" style="shape=umlActor;verticalLabelPosition=bottom;verticalAlign=top;html=1;outlineConnect=0;hachureGap=4;fontFamily=Architects Daughter;fontSource=https%3A%2F%2Ffonts.googleapis.com%2Fcss%3Ffamily%3DArchitects%2BDaughter;fontSize=20;fillColor=#f5f5f5;fontColor=#333333;strokeColor=#666666;" vertex="1" parent="1">
          <mxGeometry x="984" y="111" width="20" height="60" as="geometry" />
        </mxCell>
        <mxCell id="hXZOnrrkPScTFL7X2g5N-7" value="Client" style="text;html=1;strokeColor=none;fillColor=none;align=center;verticalAlign=middle;whiteSpace=wrap;rounded=0;fontSize=20;fontFamily=Architects Daughter;" vertex="1" parent="1">
          <mxGeometry x="960" y="76" width="60" height="30" as="geometry" />
        </mxCell>
        <mxCell id="hXZOnrrkPScTFL7X2g5N-10" value="" style="edgeStyle=orthogonalEdgeStyle;rounded=0;sketch=1;hachureGap=4;jiggle=2;curveFitting=1;orthogonalLoop=1;jettySize=auto;html=1;fontFamily=Architects Daughter;fontSource=https%3A%2F%2Ffonts.googleapis.com%2Fcss%3Ffamily%3DArchitects%2BDaughter;fontSize=16;" edge="1" parent="1" source="hXZOnrrkPScTFL7X2g5N-8" target="hXZOnrrkPScTFL7X2g5N-9">
          <mxGeometry relative="1" as="geometry" />
        </mxCell>
        <mxCell id="hXZOnrrkPScTFL7X2g5N-36" value="" style="edgeStyle=orthogonalEdgeStyle;rounded=0;sketch=1;hachureGap=4;jiggle=2;curveFitting=1;orthogonalLoop=1;jettySize=auto;html=1;fontFamily=Architects Daughter;fontSource=https%3A%2F%2Ffonts.googleapis.com%2Fcss%3Ffamily%3DArchitects%2BDaughter;fontSize=16;" edge="1" parent="1" source="hXZOnrrkPScTFL7X2g5N-8" target="hXZOnrrkPScTFL7X2g5N-12">
          <mxGeometry relative="1" as="geometry" />
        </mxCell>
        <mxCell id="hXZOnrrkPScTFL7X2g5N-8" value="&lt;font style=&quot;font-size: 14px;&quot;&gt;Model state valid?&lt;/font&gt;" style="rhombus;whiteSpace=wrap;html=1;hachureGap=4;fontFamily=Architects Daughter;fontSource=https%3A%2F%2Ffonts.googleapis.com%2Fcss%3Ffamily%3DArchitects%2BDaughter;fontSize=20;fillColor=#fff2cc;strokeColor=#d6b656;" vertex="1" parent="1">
          <mxGeometry x="940.5" y="201" width="107" height="100" as="geometry" />
        </mxCell>
        <mxCell id="hXZOnrrkPScTFL7X2g5N-9" value="&lt;font style=&quot;font-size: 14px;&quot;&gt;Return 400 error code&lt;/font&gt;" style="rounded=0;whiteSpace=wrap;html=1;hachureGap=4;fontFamily=Architects Daughter;fontSource=https%3A%2F%2Ffonts.googleapis.com%2Fcss%3Ffamily%3DArchitects%2BDaughter;fontSize=20;fillColor=#f8cecc;strokeColor=#b85450;" vertex="1" parent="1">
          <mxGeometry x="1110" y="221" width="120" height="60" as="geometry" />
        </mxCell>
        <mxCell id="hXZOnrrkPScTFL7X2g5N-11" value="No" style="text;html=1;strokeColor=none;fillColor=none;align=center;verticalAlign=middle;whiteSpace=wrap;rounded=0;fontSize=20;fontFamily=Architects Daughter;" vertex="1" parent="1">
          <mxGeometry x="1043" y="207" width="60" height="30" as="geometry" />
        </mxCell>
        <mxCell id="ZT_-rhKWgkgJQqg25-dF-2" style="edgeStyle=orthogonalEdgeStyle;rounded=0;sketch=1;hachureGap=4;jiggle=2;curveFitting=1;orthogonalLoop=1;jettySize=auto;html=1;exitX=0.5;exitY=1;exitDx=0;exitDy=0;entryX=0.5;entryY=0;entryDx=0;entryDy=0;fontFamily=Architects Daughter;fontSource=https%3A%2F%2Ffonts.googleapis.com%2Fcss%3Ffamily%3DArchitects%2BDaughter;fontSize=16;" edge="1" parent="1" source="hXZOnrrkPScTFL7X2g5N-12" target="ZT_-rhKWgkgJQqg25-dF-1">
          <mxGeometry relative="1" as="geometry" />
        </mxCell>
        <mxCell id="hXZOnrrkPScTFL7X2g5N-12" value="&lt;font style=&quot;font-size: 14px;&quot;&gt;Go to&amp;nbsp;MockyProductsService&lt;/font&gt;" style="rounded=0;whiteSpace=wrap;html=1;hachureGap=4;fontFamily=Architects Daughter;fontSource=https%3A%2F%2Ffonts.googleapis.com%2Fcss%3Ffamily%3DArchitects%2BDaughter;fontSize=20;fillColor=#d5e8d4;strokeColor=#82b366;" vertex="1" parent="1">
          <mxGeometry x="634" y="233" width="216" height="36" as="geometry" />
        </mxCell>
        <mxCell id="hXZOnrrkPScTFL7X2g5N-14" value="Yes" style="text;html=1;strokeColor=none;fillColor=none;align=center;verticalAlign=middle;whiteSpace=wrap;rounded=0;fontSize=20;fontFamily=Architects Daughter;" vertex="1" parent="1">
          <mxGeometry x="871" y="207" width="60" height="30" as="geometry" />
        </mxCell>
        <mxCell id="y3AyEOm0MBclxNPOJNlv-4" style="edgeStyle=orthogonalEdgeStyle;rounded=0;sketch=1;hachureGap=4;jiggle=2;curveFitting=1;orthogonalLoop=1;jettySize=auto;html=1;exitX=1;exitY=0.5;exitDx=0;exitDy=0;entryX=0;entryY=0.5;entryDx=0;entryDy=0;fontFamily=Architects Daughter;fontSource=https%3A%2F%2Ffonts.googleapis.com%2Fcss%3Ffamily%3DArchitects%2BDaughter;fontSize=16;" edge="1" parent="1" source="hXZOnrrkPScTFL7X2g5N-17" target="y3AyEOm0MBclxNPOJNlv-1">
          <mxGeometry relative="1" as="geometry" />
        </mxCell>
        <mxCell id="y3AyEOm0MBclxNPOJNlv-8" style="edgeStyle=orthogonalEdgeStyle;rounded=0;sketch=1;hachureGap=4;jiggle=2;curveFitting=1;orthogonalLoop=1;jettySize=auto;html=1;exitX=0;exitY=0.5;exitDx=0;exitDy=0;entryX=1.014;entryY=0.456;entryDx=0;entryDy=0;entryPerimeter=0;fontFamily=Architects Daughter;fontSource=https%3A%2F%2Ffonts.googleapis.com%2Fcss%3Ffamily%3DArchitects%2BDaughter;fontSize=16;" edge="1" parent="1" source="hXZOnrrkPScTFL7X2g5N-17" target="y3AyEOm0MBclxNPOJNlv-7">
          <mxGeometry relative="1" as="geometry" />
        </mxCell>
        <mxCell id="hXZOnrrkPScTFL7X2g5N-17" value="&lt;font style=&quot;font-size: 14px;&quot;&gt;Any user filters?&lt;/font&gt;" style="rhombus;whiteSpace=wrap;html=1;hachureGap=4;fontFamily=Architects Daughter;fontSource=https%3A%2F%2Ffonts.googleapis.com%2Fcss%3Ffamily%3DArchitects%2BDaughter;fontSize=20;fillColor=#fff2cc;strokeColor=#d6b656;" vertex="1" parent="1">
          <mxGeometry x="697.25" y="410" width="89.5" height="106" as="geometry" />
        </mxCell>
        <mxCell id="hXZOnrrkPScTFL7X2g5N-23" value="Yes" style="text;html=1;strokeColor=none;fillColor=none;align=center;verticalAlign=middle;whiteSpace=wrap;rounded=0;fontSize=20;fontFamily=Architects Daughter;" vertex="1" parent="1">
          <mxGeometry x="795" y="426" width="60" height="30" as="geometry" />
        </mxCell>
        <mxCell id="hXZOnrrkPScTFL7X2g5N-27" value="No" style="text;html=1;strokeColor=none;fillColor=none;align=center;verticalAlign=middle;whiteSpace=wrap;rounded=0;fontSize=20;fontFamily=Architects Daughter;" vertex="1" parent="1">
          <mxGeometry x="637.25" y="420" width="60" height="30" as="geometry" />
        </mxCell>
        <mxCell id="hXZOnrrkPScTFL7X2g5N-28" value="&lt;font style=&quot;font-size: 14px;&quot;&gt;Return to the client processed data as Json&lt;/font&gt;" style="rounded=0;whiteSpace=wrap;html=1;hachureGap=4;fontFamily=Architects Daughter;fontSource=https%3A%2F%2Ffonts.googleapis.com%2Fcss%3Ffamily%3DArchitects%2BDaughter;fontSize=20;fillColor=#dae8fc;strokeColor=#6c8ebf;" vertex="1" parent="1">
          <mxGeometry x="664" y="659" width="167" height="60" as="geometry" />
        </mxCell>
        <mxCell id="hXZOnrrkPScTFL7X2g5N-40" value="&lt;font style=&quot;font-size: 14px;&quot;&gt;Sends the request&lt;/font&gt;" style="text;html=1;strokeColor=none;fillColor=none;align=center;verticalAlign=middle;whiteSpace=wrap;rounded=0;fontSize=20;fontFamily=Architects Daughter;" vertex="1" parent="1">
          <mxGeometry x="991" y="165" width="96" height="42" as="geometry" />
        </mxCell>
        <mxCell id="y3AyEOm0MBclxNPOJNlv-5" style="edgeStyle=orthogonalEdgeStyle;rounded=0;sketch=1;hachureGap=4;jiggle=2;curveFitting=1;orthogonalLoop=1;jettySize=auto;html=1;exitX=0.5;exitY=1;exitDx=0;exitDy=0;entryX=0.5;entryY=0;entryDx=0;entryDy=0;fontFamily=Architects Daughter;fontSource=https%3A%2F%2Ffonts.googleapis.com%2Fcss%3Ffamily%3DArchitects%2BDaughter;fontSize=16;" edge="1" parent="1" source="y3AyEOm0MBclxNPOJNlv-1" target="y3AyEOm0MBclxNPOJNlv-2">
          <mxGeometry relative="1" as="geometry" />
        </mxCell>
        <mxCell id="y3AyEOm0MBclxNPOJNlv-1" value="&lt;font style=&quot;border-color: var(--border-color); font-size: 14px;&quot;&gt;Apply filters using&amp;nbsp;&lt;/font&gt;&lt;font style=&quot;border-color: var(--border-color); font-size: 14px;&quot;&gt;Filters Service&lt;/font&gt;" style="shape=process;whiteSpace=wrap;html=1;backgroundOutline=1;hachureGap=4;fontFamily=Architects Daughter;fontSource=https%3A%2F%2Ffonts.googleapis.com%2Fcss%3Ffamily%3DArchitects%2BDaughter;fontSize=20;fillColor=#e1d5e7;strokeColor=#9673a6;" vertex="1" parent="1">
          <mxGeometry x="916" y="427.5" width="139" height="71" as="geometry" />
        </mxCell>
        <mxCell id="y3AyEOm0MBclxNPOJNlv-6" style="edgeStyle=orthogonalEdgeStyle;rounded=0;sketch=1;hachureGap=4;jiggle=2;curveFitting=1;orthogonalLoop=1;jettySize=auto;html=1;exitX=0.5;exitY=1;exitDx=0;exitDy=0;entryX=0.5;entryY=0;entryDx=0;entryDy=0;fontFamily=Architects Daughter;fontSource=https%3A%2F%2Ffonts.googleapis.com%2Fcss%3Ffamily%3DArchitects%2BDaughter;fontSize=16;" edge="1" parent="1" source="y3AyEOm0MBclxNPOJNlv-2" target="hXZOnrrkPScTFL7X2g5N-28">
          <mxGeometry relative="1" as="geometry" />
        </mxCell>
        <mxCell id="y3AyEOm0MBclxNPOJNlv-2" value="&lt;font style=&quot;border-color: var(--border-color); font-size: 14px;&quot;&gt;Calculate and set products statistics using&amp;nbsp;&lt;/font&gt;&lt;font style=&quot;border-color: var(--border-color); font-size: 14px;&quot;&gt;Products Statistics Service&lt;/font&gt;" style="shape=process;whiteSpace=wrap;html=1;backgroundOutline=1;hachureGap=4;fontFamily=Architects Daughter;fontSource=https%3A%2F%2Ffonts.googleapis.com%2Fcss%3Ffamily%3DArchitects%2BDaughter;fontSize=20;fillColor=#e1d5e7;strokeColor=#9673a6;" vertex="1" parent="1">
          <mxGeometry x="870" y="541" width="231" height="75" as="geometry" />
        </mxCell>
        <mxCell id="y3AyEOm0MBclxNPOJNlv-9" style="edgeStyle=orthogonalEdgeStyle;rounded=0;sketch=1;hachureGap=4;jiggle=2;curveFitting=1;orthogonalLoop=1;jettySize=auto;html=1;exitX=0.5;exitY=1;exitDx=0;exitDy=0;entryX=0.5;entryY=0;entryDx=0;entryDy=0;fontFamily=Architects Daughter;fontSource=https%3A%2F%2Ffonts.googleapis.com%2Fcss%3Ffamily%3DArchitects%2BDaughter;fontSize=16;" edge="1" parent="1" source="y3AyEOm0MBclxNPOJNlv-7" target="hXZOnrrkPScTFL7X2g5N-28">
          <mxGeometry relative="1" as="geometry" />
        </mxCell>
        <mxCell id="y3AyEOm0MBclxNPOJNlv-7" value="&lt;font style=&quot;font-size: 13px;&quot;&gt;&lt;font style=&quot;font-size: 13px;&quot;&gt;Calculate and set statistics for unchanged products set&amp;nbsp;&lt;/font&gt;&lt;font style=&quot;border-color: var(--border-color); font-size: 13px;&quot;&gt;using&amp;nbsp;&lt;/font&gt;&lt;font style=&quot;border-color: var(--border-color); font-size: 13px;&quot;&gt;Products Statistics Service&lt;/font&gt;&lt;/font&gt;" style="shape=process;whiteSpace=wrap;html=1;backgroundOutline=1;hachureGap=4;fontFamily=Architects Daughter;fontSource=https%3A%2F%2Ffonts.googleapis.com%2Fcss%3Ffamily%3DArchitects%2BDaughter;fontSize=20;fillColor=#ffe6cc;strokeColor=#d79b00;" vertex="1" parent="1">
          <mxGeometry x="433" y="406" width="177" height="125" as="geometry" />
        </mxCell>
        <mxCell id="ZT_-rhKWgkgJQqg25-dF-3" style="edgeStyle=orthogonalEdgeStyle;rounded=0;sketch=1;hachureGap=4;jiggle=2;curveFitting=1;orthogonalLoop=1;jettySize=auto;html=1;exitX=0.5;exitY=1;exitDx=0;exitDy=0;entryX=0.5;entryY=0;entryDx=0;entryDy=0;fontFamily=Architects Daughter;fontSource=https%3A%2F%2Ffonts.googleapis.com%2Fcss%3Ffamily%3DArchitects%2BDaughter;fontSize=16;" edge="1" parent="1" source="ZT_-rhKWgkgJQqg25-dF-1" target="hXZOnrrkPScTFL7X2g5N-17">
          <mxGeometry relative="1" as="geometry" />
        </mxCell>
        <mxCell id="ZT_-rhKWgkgJQqg25-dF-1" value="&lt;font style=&quot;font-size: 15px;&quot;&gt;Retrieve all products from&amp;nbsp;Mocky Products Repository&lt;span style=&quot;border-color: var(--border-color); background-color: initial;&quot;&gt;&amp;nbsp;&lt;/span&gt;&lt;/font&gt;" style="shape=process;whiteSpace=wrap;html=1;backgroundOutline=1;hachureGap=4;fontFamily=Architects Daughter;fontSource=https%3A%2F%2Ffonts.googleapis.com%2Fcss%3Ffamily%3DArchitects%2BDaughter;fontSize=20;fillColor=#dae8fc;strokeColor=#6c8ebf;" vertex="1" parent="1">
          <mxGeometry x="627.5" y="310" width="229" height="77" as="geometry" />
        </mxCell>
      </root>
    </mxGraphModel>
  </diagram>
  <diagram id="n6B5UJreoJRLwViP-dm-" name="Pagina-2">
    <mxGraphModel dx="1466" dy="770" grid="0" gridSize="10" guides="1" tooltips="1" connect="1" arrows="1" fold="1" page="1" pageScale="1" pageWidth="4681" pageHeight="3300" math="0" shadow="0">
      <root>
        <mxCell id="0" />
        <mxCell id="1" parent="0" />
        <mxCell id="n5VIhdhzappx2P_pgKRD-5" value="" style="edgeStyle=orthogonalEdgeStyle;rounded=0;sketch=1;hachureGap=4;jiggle=2;curveFitting=1;orthogonalLoop=1;jettySize=auto;html=1;fontFamily=Architects Daughter;fontSource=https%3A%2F%2Ffonts.googleapis.com%2Fcss%3Ffamily%3DArchitects%2BDaughter;fontSize=16;" edge="1" parent="1" source="n5VIhdhzappx2P_pgKRD-1" target="n5VIhdhzappx2P_pgKRD-4">
          <mxGeometry relative="1" as="geometry" />
        </mxCell>
        <mxCell id="n5VIhdhzappx2P_pgKRD-1" value="&lt;div style=&quot;background-color: rgb(255, 255, 255);&quot;&gt;&lt;font style=&quot;font-size: 14px;&quot;&gt;Mocky Products Repository&lt;/font&gt;&lt;br&gt;&lt;/div&gt;" style="shape=cylinder3;whiteSpace=wrap;html=1;boundedLbl=1;backgroundOutline=1;size=15;hachureGap=4;fontFamily=Architects Daughter;fontSource=https%3A%2F%2Ffonts.googleapis.com%2Fcss%3Ffamily%3DArchitects%2BDaughter;fontSize=20;fillColor=#f5f5f5;fontColor=#333333;strokeColor=#666666;sketch=1;curveFitting=1;jiggle=2;" vertex="1" parent="1">
          <mxGeometry x="315" y="121" width="115" height="133" as="geometry" />
        </mxCell>
        <mxCell id="n5VIhdhzappx2P_pgKRD-7" value="" style="edgeStyle=orthogonalEdgeStyle;rounded=0;sketch=1;hachureGap=4;jiggle=2;curveFitting=1;orthogonalLoop=1;jettySize=auto;html=1;fontFamily=Architects Daughter;fontSource=https%3A%2F%2Ffonts.googleapis.com%2Fcss%3Ffamily%3DArchitects%2BDaughter;fontSize=16;" edge="1" parent="1" source="n5VIhdhzappx2P_pgKRD-4" target="n5VIhdhzappx2P_pgKRD-6">
          <mxGeometry relative="1" as="geometry" />
        </mxCell>
        <mxCell id="z_crboVebuF6W9dSr8nG-1" style="edgeStyle=orthogonalEdgeStyle;rounded=0;sketch=1;hachureGap=4;jiggle=2;curveFitting=1;orthogonalLoop=1;jettySize=auto;html=1;exitX=1;exitY=0.5;exitDx=0;exitDy=0;entryX=0;entryY=0.5;entryDx=0;entryDy=0;fontFamily=Architects Daughter;fontSource=https%3A%2F%2Ffonts.googleapis.com%2Fcss%3Ffamily%3DArchitects%2BDaughter;fontSize=16;dashed=1;" edge="1" parent="1" source="n5VIhdhzappx2P_pgKRD-4" target="n5VIhdhzappx2P_pgKRD-10">
          <mxGeometry relative="1" as="geometry" />
        </mxCell>
        <mxCell id="n5VIhdhzappx2P_pgKRD-4" value="&lt;font style=&quot;font-size: 14px;&quot;&gt;Get Mocky Products using&amp;nbsp;&lt;font style=&quot;border-color: var(--border-color); font-size: 14px;&quot;&gt;MockyApiClient Singleton instance&lt;/font&gt;&lt;/font&gt;" style="shape=process;whiteSpace=wrap;html=1;backgroundOutline=1;hachureGap=4;fontFamily=Architects Daughter;fontSource=https%3A%2F%2Ffonts.googleapis.com%2Fcss%3Ffamily%3DArchitects%2BDaughter;fontSize=20;fillColor=#dae8fc;strokeColor=#6c8ebf;" vertex="1" parent="1">
          <mxGeometry x="266" y="296" width="213" height="74" as="geometry" />
        </mxCell>
        <mxCell id="n5VIhdhzappx2P_pgKRD-9" value="" style="edgeStyle=orthogonalEdgeStyle;rounded=0;sketch=1;hachureGap=4;jiggle=2;curveFitting=1;orthogonalLoop=1;jettySize=auto;html=1;fontFamily=Architects Daughter;fontSource=https%3A%2F%2Ffonts.googleapis.com%2Fcss%3Ffamily%3DArchitects%2BDaughter;fontSize=16;" edge="1" parent="1" source="n5VIhdhzappx2P_pgKRD-6" target="n5VIhdhzappx2P_pgKRD-8">
          <mxGeometry relative="1" as="geometry" />
        </mxCell>
        <mxCell id="n5VIhdhzappx2P_pgKRD-6" value="&lt;font style=&quot;font-size: 14px;&quot;&gt;Use&amp;nbsp;Serialization Service for serialization and mask sensitive data&lt;/font&gt;" style="shape=process;whiteSpace=wrap;html=1;backgroundOutline=1;hachureGap=4;fontFamily=Architects Daughter;fontSource=https%3A%2F%2Ffonts.googleapis.com%2Fcss%3Ffamily%3DArchitects%2BDaughter;fontSize=20;fillColor=#d5e8d4;strokeColor=#82b366;" vertex="1" parent="1">
          <mxGeometry x="264" y="417" width="217" height="82" as="geometry" />
        </mxCell>
        <mxCell id="n5VIhdhzappx2P_pgKRD-8" value="&lt;font style=&quot;font-size: 14px;&quot;&gt;Return Mocky products&lt;/font&gt;" style="rounded=0;whiteSpace=wrap;html=1;hachureGap=4;fontFamily=Architects Daughter;fontSource=https%3A%2F%2Ffonts.googleapis.com%2Fcss%3Ffamily%3DArchitects%2BDaughter;fontSize=20;fillColor=#d5e8d4;strokeColor=#82b366;" vertex="1" parent="1">
          <mxGeometry x="312.5" y="537" width="120" height="60" as="geometry" />
        </mxCell>
        <mxCell id="n5VIhdhzappx2P_pgKRD-22" value="" style="edgeStyle=orthogonalEdgeStyle;rounded=0;sketch=1;hachureGap=4;jiggle=2;curveFitting=1;orthogonalLoop=1;jettySize=auto;html=1;fontFamily=Architects Daughter;fontSource=https%3A%2F%2Ffonts.googleapis.com%2Fcss%3Ffamily%3DArchitects%2BDaughter;fontSize=16;" edge="1" parent="1" source="n5VIhdhzappx2P_pgKRD-10" target="n5VIhdhzappx2P_pgKRD-11">
          <mxGeometry relative="1" as="geometry" />
        </mxCell>
        <mxCell id="n5VIhdhzappx2P_pgKRD-10" value="&lt;font style=&quot;font-size: 14px;&quot;&gt;Mocky Api Client&lt;/font&gt;" style="rounded=0;whiteSpace=wrap;html=1;hachureGap=4;fontFamily=Architects Daughter;fontSource=https%3A%2F%2Ffonts.googleapis.com%2Fcss%3Ffamily%3DArchitects%2BDaughter;fontSize=20;fillColor=#dae8fc;strokeColor=#6c8ebf;" vertex="1" parent="1">
          <mxGeometry x="705" y="121" width="120" height="60" as="geometry" />
        </mxCell>
        <mxCell id="n5VIhdhzappx2P_pgKRD-23" value="" style="edgeStyle=orthogonalEdgeStyle;rounded=0;sketch=1;hachureGap=4;jiggle=2;curveFitting=1;orthogonalLoop=1;jettySize=auto;html=1;fontFamily=Architects Daughter;fontSource=https%3A%2F%2Ffonts.googleapis.com%2Fcss%3Ffamily%3DArchitects%2BDaughter;fontSize=16;" edge="1" parent="1" source="n5VIhdhzappx2P_pgKRD-11" target="n5VIhdhzappx2P_pgKRD-12">
          <mxGeometry relative="1" as="geometry" />
        </mxCell>
        <mxCell id="n5VIhdhzappx2P_pgKRD-11" value="&lt;font style=&quot;font-size: 14px;&quot;&gt;Initialize singleton instance from middleware&amp;nbsp;&lt;/font&gt;" style="rounded=0;whiteSpace=wrap;html=1;hachureGap=4;fontFamily=Architects Daughter;fontSource=https%3A%2F%2Ffonts.googleapis.com%2Fcss%3Ffamily%3DArchitects%2BDaughter;fontSize=20;fillColor=#dae8fc;strokeColor=#6c8ebf;" vertex="1" parent="1">
          <mxGeometry x="671" y="218" width="188" height="66" as="geometry" />
        </mxCell>
        <mxCell id="n5VIhdhzappx2P_pgKRD-24" value="" style="edgeStyle=orthogonalEdgeStyle;rounded=0;sketch=1;hachureGap=4;jiggle=2;curveFitting=1;orthogonalLoop=1;jettySize=auto;html=1;fontFamily=Architects Daughter;fontSource=https%3A%2F%2Ffonts.googleapis.com%2Fcss%3Ffamily%3DArchitects%2BDaughter;fontSize=16;" edge="1" parent="1" source="n5VIhdhzappx2P_pgKRD-12" target="n5VIhdhzappx2P_pgKRD-13">
          <mxGeometry relative="1" as="geometry" />
        </mxCell>
        <mxCell id="n5VIhdhzappx2P_pgKRD-12" value="&lt;font style=&quot;font-size: 14px;&quot;&gt;Create http client&lt;/font&gt;" style="rounded=0;whiteSpace=wrap;html=1;hachureGap=4;fontFamily=Architects Daughter;fontSource=https%3A%2F%2Ffonts.googleapis.com%2Fcss%3Ffamily%3DArchitects%2BDaughter;fontSize=20;fillColor=#dae8fc;strokeColor=#6c8ebf;" vertex="1" parent="1">
          <mxGeometry x="666" y="321" width="197" height="60" as="geometry" />
        </mxCell>
        <mxCell id="n5VIhdhzappx2P_pgKRD-25" value="" style="edgeStyle=orthogonalEdgeStyle;rounded=0;sketch=1;hachureGap=4;jiggle=2;curveFitting=1;orthogonalLoop=1;jettySize=auto;html=1;fontFamily=Architects Daughter;fontSource=https%3A%2F%2Ffonts.googleapis.com%2Fcss%3Ffamily%3DArchitects%2BDaughter;fontSize=16;" edge="1" parent="1" source="n5VIhdhzappx2P_pgKRD-13" target="n5VIhdhzappx2P_pgKRD-14">
          <mxGeometry relative="1" as="geometry" />
        </mxCell>
        <mxCell id="n5VIhdhzappx2P_pgKRD-13" value="&lt;font style=&quot;font-size: 14px;&quot;&gt;Consume data from Mocky.io&lt;/font&gt;" style="rounded=0;whiteSpace=wrap;html=1;hachureGap=4;fontFamily=Architects Daughter;fontSource=https%3A%2F%2Ffonts.googleapis.com%2Fcss%3Ffamily%3DArchitects%2BDaughter;fontSize=20;fillColor=#dae8fc;strokeColor=#6c8ebf;" vertex="1" parent="1">
          <mxGeometry x="700" y="417" width="130" height="90" as="geometry" />
        </mxCell>
        <mxCell id="n5VIhdhzappx2P_pgKRD-27" value="" style="edgeStyle=orthogonalEdgeStyle;rounded=0;sketch=1;hachureGap=4;jiggle=2;curveFitting=1;orthogonalLoop=1;jettySize=auto;html=1;fontFamily=Architects Daughter;fontSource=https%3A%2F%2Ffonts.googleapis.com%2Fcss%3Ffamily%3DArchitects%2BDaughter;fontSize=16;" edge="1" parent="1" source="n5VIhdhzappx2P_pgKRD-14" target="n5VIhdhzappx2P_pgKRD-15">
          <mxGeometry relative="1" as="geometry" />
        </mxCell>
        <mxCell id="n5VIhdhzappx2P_pgKRD-28" value="" style="edgeStyle=orthogonalEdgeStyle;rounded=0;sketch=1;hachureGap=4;jiggle=2;curveFitting=1;orthogonalLoop=1;jettySize=auto;html=1;fontFamily=Architects Daughter;fontSource=https%3A%2F%2Ffonts.googleapis.com%2Fcss%3Ffamily%3DArchitects%2BDaughter;fontSize=16;" edge="1" parent="1" source="n5VIhdhzappx2P_pgKRD-14" target="n5VIhdhzappx2P_pgKRD-20">
          <mxGeometry relative="1" as="geometry" />
        </mxCell>
        <mxCell id="n5VIhdhzappx2P_pgKRD-14" value="&lt;font style=&quot;font-size: 14px;&quot;&gt;Success?&lt;/font&gt;" style="rhombus;whiteSpace=wrap;html=1;hachureGap=4;fontFamily=Architects Daughter;fontSource=https%3A%2F%2Ffonts.googleapis.com%2Fcss%3Ffamily%3DArchitects%2BDaughter;fontSize=20;fillColor=#fff2cc;strokeColor=#d6b656;" vertex="1" parent="1">
          <mxGeometry x="704" y="549" width="122" height="79" as="geometry" />
        </mxCell>
        <mxCell id="z_crboVebuF6W9dSr8nG-5" style="edgeStyle=orthogonalEdgeStyle;rounded=0;sketch=1;hachureGap=4;jiggle=2;curveFitting=1;orthogonalLoop=1;jettySize=auto;html=1;exitX=0.5;exitY=1;exitDx=0;exitDy=0;entryX=0.5;entryY=0;entryDx=0;entryDy=0;fontFamily=Architects Daughter;fontSource=https%3A%2F%2Ffonts.googleapis.com%2Fcss%3Ffamily%3DArchitects%2BDaughter;fontSize=16;" edge="1" parent="1" source="n5VIhdhzappx2P_pgKRD-15" target="n5VIhdhzappx2P_pgKRD-16">
          <mxGeometry relative="1" as="geometry" />
        </mxCell>
        <mxCell id="n5VIhdhzappx2P_pgKRD-15" value="&lt;font style=&quot;font-size: 14px;&quot;&gt;Read data&lt;/font&gt;" style="rounded=0;whiteSpace=wrap;html=1;hachureGap=4;fontFamily=Architects Daughter;fontSource=https%3A%2F%2Ffonts.googleapis.com%2Fcss%3Ffamily%3DArchitects%2BDaughter;fontSize=20;fillColor=#dae8fc;strokeColor=#6c8ebf;" vertex="1" parent="1">
          <mxGeometry x="901" y="563.25" width="98" height="50.5" as="geometry" />
        </mxCell>
        <mxCell id="z_crboVebuF6W9dSr8nG-6" style="edgeStyle=orthogonalEdgeStyle;rounded=0;sketch=1;hachureGap=4;jiggle=2;curveFitting=1;orthogonalLoop=1;jettySize=auto;html=1;exitX=0.5;exitY=1;exitDx=0;exitDy=0;entryX=0.5;entryY=0;entryDx=0;entryDy=0;fontFamily=Architects Daughter;fontSource=https%3A%2F%2Ffonts.googleapis.com%2Fcss%3Ffamily%3DArchitects%2BDaughter;fontSize=16;" edge="1" parent="1" source="n5VIhdhzappx2P_pgKRD-16" target="n5VIhdhzappx2P_pgKRD-17">
          <mxGeometry relative="1" as="geometry" />
        </mxCell>
        <mxCell id="n5VIhdhzappx2P_pgKRD-16" value="&lt;font style=&quot;font-size: 14px;&quot;&gt;Deserialize&lt;/font&gt;" style="rounded=0;whiteSpace=wrap;html=1;hachureGap=4;fontFamily=Architects Daughter;fontSource=https%3A%2F%2Ffonts.googleapis.com%2Fcss%3Ffamily%3DArchitects%2BDaughter;fontSize=20;fillColor=#dae8fc;strokeColor=#6c8ebf;" vertex="1" parent="1">
          <mxGeometry x="905" y="646" width="98" height="51" as="geometry" />
        </mxCell>
        <mxCell id="n5VIhdhzappx2P_pgKRD-17" value="&lt;font style=&quot;font-size: 14px;&quot;&gt;Return mocky.io products&lt;/font&gt;" style="rounded=0;whiteSpace=wrap;html=1;hachureGap=4;fontFamily=Architects Daughter;fontSource=https%3A%2F%2Ffonts.googleapis.com%2Fcss%3Ffamily%3DArchitects%2BDaughter;fontSize=20;fillColor=#dae8fc;strokeColor=#6c8ebf;" vertex="1" parent="1">
          <mxGeometry x="887" y="725" width="134" height="55" as="geometry" />
        </mxCell>
        <mxCell id="n5VIhdhzappx2P_pgKRD-18" value="Yes" style="text;html=1;strokeColor=none;fillColor=none;align=center;verticalAlign=middle;whiteSpace=wrap;rounded=0;fontSize=20;fontFamily=Architects Daughter;" vertex="1" parent="1">
          <mxGeometry x="821" y="535" width="60" height="30" as="geometry" />
        </mxCell>
        <mxCell id="n5VIhdhzappx2P_pgKRD-19" value="No" style="text;html=1;strokeColor=none;fillColor=none;align=center;verticalAlign=middle;whiteSpace=wrap;rounded=0;fontSize=20;fontFamily=Architects Daughter;" vertex="1" parent="1">
          <mxGeometry x="653" y="543" width="60" height="30" as="geometry" />
        </mxCell>
        <mxCell id="z_crboVebuF6W9dSr8nG-3" value="" style="edgeStyle=orthogonalEdgeStyle;rounded=0;sketch=1;hachureGap=4;jiggle=2;curveFitting=1;orthogonalLoop=1;jettySize=auto;html=1;fontFamily=Architects Daughter;fontSource=https%3A%2F%2Ffonts.googleapis.com%2Fcss%3Ffamily%3DArchitects%2BDaughter;fontSize=16;" edge="1" parent="1" source="n5VIhdhzappx2P_pgKRD-20" target="n5VIhdhzappx2P_pgKRD-21">
          <mxGeometry relative="1" as="geometry" />
        </mxCell>
        <mxCell id="n5VIhdhzappx2P_pgKRD-20" value="&lt;font style=&quot;font-size: 14px;&quot;&gt;Read http response content&lt;/font&gt;" style="rounded=0;whiteSpace=wrap;html=1;hachureGap=4;fontFamily=Architects Daughter;fontSource=https%3A%2F%2Ffonts.googleapis.com%2Fcss%3Ffamily%3DArchitects%2BDaughter;fontSize=20;fillColor=#f8cecc;strokeColor=#b85450;" vertex="1" parent="1">
          <mxGeometry x="510" y="551.25" width="134" height="74.5" as="geometry" />
        </mxCell>
        <mxCell id="n5VIhdhzappx2P_pgKRD-21" value="&lt;font style=&quot;font-size: 14px;&quot;&gt;Throw Load All Mocky Products Failed Exception&lt;/font&gt;" style="rounded=0;whiteSpace=wrap;html=1;hachureGap=4;fontFamily=Architects Daughter;fontSource=https%3A%2F%2Ffonts.googleapis.com%2Fcss%3Ffamily%3DArchitects%2BDaughter;fontSize=20;fillColor=#f8cecc;strokeColor=#b85450;" vertex="1" parent="1">
          <mxGeometry x="485.5" y="678" width="180.5" height="67" as="geometry" />
        </mxCell>
      </root>
    </mxGraphModel>
  </diagram>
  <diagram id="1rfaKEG3zXF-JoPr6ooP" name="Pagina-3">
    <mxGraphModel dx="1578" dy="829" grid="0" gridSize="10" guides="1" tooltips="1" connect="1" arrows="1" fold="1" page="1" pageScale="1" pageWidth="4681" pageHeight="3300" math="0" shadow="0">
      <root>
        <mxCell id="0" />
        <mxCell id="1" parent="0" />
        <mxCell id="GE09Tt6vW3fJX5JUZqtv-23" value="" style="edgeStyle=orthogonalEdgeStyle;rounded=0;sketch=1;hachureGap=4;jiggle=2;curveFitting=1;orthogonalLoop=1;jettySize=auto;html=1;fontFamily=Architects Daughter;fontSource=https%3A%2F%2Ffonts.googleapis.com%2Fcss%3Ffamily%3DArchitects%2BDaughter;fontSize=16;" edge="1" parent="1" source="GE09Tt6vW3fJX5JUZqtv-18" target="GE09Tt6vW3fJX5JUZqtv-22">
          <mxGeometry relative="1" as="geometry" />
        </mxCell>
        <mxCell id="GE09Tt6vW3fJX5JUZqtv-18" value="" style="rounded=1;whiteSpace=wrap;html=1;hachureGap=4;fontFamily=Architects Daughter;fontSource=https%3A%2F%2Ffonts.googleapis.com%2Fcss%3Ffamily%3DArchitects%2BDaughter;fontSize=20;fillColor=#dae8fc;strokeColor=#6c8ebf;" vertex="1" parent="1">
          <mxGeometry x="24" y="248" width="830" height="143" as="geometry" />
        </mxCell>
        <mxCell id="GE09Tt6vW3fJX5JUZqtv-3" value="" style="edgeStyle=orthogonalEdgeStyle;rounded=0;sketch=1;hachureGap=4;jiggle=2;curveFitting=1;orthogonalLoop=1;jettySize=auto;html=1;fontFamily=Architects Daughter;fontSource=https%3A%2F%2Ffonts.googleapis.com%2Fcss%3Ffamily%3DArchitects%2BDaughter;fontSize=16;" edge="1" parent="1" source="GE09Tt6vW3fJX5JUZqtv-1" target="GE09Tt6vW3fJX5JUZqtv-2">
          <mxGeometry relative="1" as="geometry" />
        </mxCell>
        <mxCell id="GE09Tt6vW3fJX5JUZqtv-1" value="Filters service" style="rounded=0;whiteSpace=wrap;html=1;hachureGap=4;fontFamily=Architects Daughter;fontSource=https%3A%2F%2Ffonts.googleapis.com%2Fcss%3Ffamily%3DArchitects%2BDaughter;fontSize=20;fillColor=#d5e8d4;strokeColor=#82b366;" vertex="1" parent="1">
          <mxGeometry x="379" y="13" width="120" height="60" as="geometry" />
        </mxCell>
        <mxCell id="GE09Tt6vW3fJX5JUZqtv-21" value="" style="edgeStyle=orthogonalEdgeStyle;rounded=0;sketch=1;hachureGap=4;jiggle=2;curveFitting=1;orthogonalLoop=1;jettySize=auto;html=1;fontFamily=Architects Daughter;fontSource=https%3A%2F%2Ffonts.googleapis.com%2Fcss%3Ffamily%3DArchitects%2BDaughter;fontSize=16;" edge="1" parent="1" source="GE09Tt6vW3fJX5JUZqtv-2" target="GE09Tt6vW3fJX5JUZqtv-18">
          <mxGeometry relative="1" as="geometry" />
        </mxCell>
        <mxCell id="GE09Tt6vW3fJX5JUZqtv-2" value="Create Filters Options Chain" style="rounded=0;whiteSpace=wrap;html=1;hachureGap=4;fontFamily=Architects Daughter;fontSource=https%3A%2F%2Ffonts.googleapis.com%2Fcss%3Ffamily%3DArchitects%2BDaughter;fontSize=20;fillColor=#d5e8d4;strokeColor=#82b366;" vertex="1" parent="1">
          <mxGeometry x="302" y="138" width="274" height="60" as="geometry" />
        </mxCell>
        <mxCell id="GE09Tt6vW3fJX5JUZqtv-15" value="" style="edgeStyle=orthogonalEdgeStyle;rounded=0;sketch=1;hachureGap=4;jiggle=2;curveFitting=1;orthogonalLoop=1;jettySize=auto;html=1;fontFamily=Architects Daughter;fontSource=https%3A%2F%2Ffonts.googleapis.com%2Fcss%3Ffamily%3DArchitects%2BDaughter;fontSize=16;" edge="1" parent="1" source="GE09Tt6vW3fJX5JUZqtv-4" target="GE09Tt6vW3fJX5JUZqtv-5">
          <mxGeometry relative="1" as="geometry" />
        </mxCell>
        <mxCell id="GE09Tt6vW3fJX5JUZqtv-4" value="Minimal price filter" style="ellipse;whiteSpace=wrap;html=1;sketch=1;hachureGap=4;jiggle=2;curveFitting=1;fontFamily=Architects Daughter;fontSource=https%3A%2F%2Ffonts.googleapis.com%2Fcss%3Ffamily%3DArchitects%2BDaughter;fontSize=20;" vertex="1" parent="1">
          <mxGeometry x="49" y="274.5" width="164" height="77" as="geometry" />
        </mxCell>
        <mxCell id="GE09Tt6vW3fJX5JUZqtv-16" value="" style="edgeStyle=orthogonalEdgeStyle;rounded=0;sketch=1;hachureGap=4;jiggle=2;curveFitting=1;orthogonalLoop=1;jettySize=auto;html=1;fontFamily=Architects Daughter;fontSource=https%3A%2F%2Ffonts.googleapis.com%2Fcss%3Ffamily%3DArchitects%2BDaughter;fontSize=16;" edge="1" parent="1" source="GE09Tt6vW3fJX5JUZqtv-5" target="GE09Tt6vW3fJX5JUZqtv-6">
          <mxGeometry relative="1" as="geometry" />
        </mxCell>
        <mxCell id="GE09Tt6vW3fJX5JUZqtv-5" value="Maximal price filter" style="ellipse;whiteSpace=wrap;html=1;sketch=1;hachureGap=4;jiggle=2;curveFitting=1;fontFamily=Architects Daughter;fontSource=https%3A%2F%2Ffonts.googleapis.com%2Fcss%3Ffamily%3DArchitects%2BDaughter;fontSize=20;" vertex="1" parent="1">
          <mxGeometry x="281" y="273" width="120" height="80" as="geometry" />
        </mxCell>
        <mxCell id="GE09Tt6vW3fJX5JUZqtv-17" value="" style="edgeStyle=orthogonalEdgeStyle;rounded=0;sketch=1;hachureGap=4;jiggle=2;curveFitting=1;orthogonalLoop=1;jettySize=auto;html=1;fontFamily=Architects Daughter;fontSource=https%3A%2F%2Ffonts.googleapis.com%2Fcss%3Ffamily%3DArchitects%2BDaughter;fontSize=16;" edge="1" parent="1" source="GE09Tt6vW3fJX5JUZqtv-6" target="GE09Tt6vW3fJX5JUZqtv-7">
          <mxGeometry relative="1" as="geometry" />
        </mxCell>
        <mxCell id="GE09Tt6vW3fJX5JUZqtv-6" value="Size filter" style="ellipse;whiteSpace=wrap;html=1;sketch=1;hachureGap=4;jiggle=2;curveFitting=1;fontFamily=Architects Daughter;fontSource=https%3A%2F%2Ffonts.googleapis.com%2Fcss%3Ffamily%3DArchitects%2BDaughter;fontSize=20;" vertex="1" parent="1">
          <mxGeometry x="494" y="279.5" width="115" height="67" as="geometry" />
        </mxCell>
        <mxCell id="GE09Tt6vW3fJX5JUZqtv-7" value="Highlight colors" style="ellipse;whiteSpace=wrap;html=1;sketch=1;hachureGap=4;jiggle=2;curveFitting=1;fontFamily=Architects Daughter;fontSource=https%3A%2F%2Ffonts.googleapis.com%2Fcss%3Ffamily%3DArchitects%2BDaughter;fontSize=20;" vertex="1" parent="1">
          <mxGeometry x="678" y="274.5" width="120" height="80" as="geometry" />
        </mxCell>
        <mxCell id="GE09Tt6vW3fJX5JUZqtv-20" value="&lt;font style=&quot;font-size: 28px;&quot;&gt;Filters&lt;/font&gt;" style="text;html=1;strokeColor=none;fillColor=none;align=center;verticalAlign=middle;whiteSpace=wrap;rounded=0;fontSize=20;fontFamily=Architects Daughter;" vertex="1" parent="1">
          <mxGeometry x="759" y="206" width="60" height="30" as="geometry" />
        </mxCell>
        <mxCell id="GE09Tt6vW3fJX5JUZqtv-25" value="" style="edgeStyle=orthogonalEdgeStyle;rounded=0;sketch=1;hachureGap=4;jiggle=2;curveFitting=1;orthogonalLoop=1;jettySize=auto;html=1;fontFamily=Architects Daughter;fontSource=https%3A%2F%2Ffonts.googleapis.com%2Fcss%3Ffamily%3DArchitects%2BDaughter;fontSize=16;" edge="1" parent="1" source="GE09Tt6vW3fJX5JUZqtv-22" target="GE09Tt6vW3fJX5JUZqtv-24">
          <mxGeometry relative="1" as="geometry" />
        </mxCell>
        <mxCell id="GE09Tt6vW3fJX5JUZqtv-22" value="Apply filters on Mocky products" style="rounded=0;whiteSpace=wrap;html=1;hachureGap=4;fontFamily=Architects Daughter;fontSource=https%3A%2F%2Ffonts.googleapis.com%2Fcss%3Ffamily%3DArchitects%2BDaughter;fontSize=20;fillColor=#d5e8d4;strokeColor=#82b366;" vertex="1" parent="1">
          <mxGeometry x="273" y="449" width="332" height="85" as="geometry" />
        </mxCell>
        <mxCell id="GE09Tt6vW3fJX5JUZqtv-24" value="Return new collection of filtered data" style="rounded=0;whiteSpace=wrap;html=1;hachureGap=4;fontFamily=Architects Daughter;fontSource=https%3A%2F%2Ffonts.googleapis.com%2Fcss%3Ffamily%3DArchitects%2BDaughter;fontSize=20;fillColor=#d5e8d4;strokeColor=#82b366;" vertex="1" parent="1">
          <mxGeometry x="253" y="587" width="372" height="60" as="geometry" />
        </mxCell>
      </root>
    </mxGraphModel>
  </diagram>
  <diagram id="BrkcXRxsYgoUlKJ7tQMD" name="Pagina-4">
    <mxGraphModel dx="2052" dy="1078" grid="0" gridSize="10" guides="1" tooltips="1" connect="1" arrows="1" fold="1" page="1" pageScale="1" pageWidth="4681" pageHeight="3300" math="0" shadow="0">
      <root>
        <mxCell id="0" />
        <mxCell id="1" parent="0" />
        <mxCell id="6SuPDewYfewzEuoH2_-M-11" value="" style="edgeStyle=orthogonalEdgeStyle;rounded=0;sketch=1;hachureGap=4;jiggle=2;curveFitting=1;orthogonalLoop=1;jettySize=auto;html=1;fontFamily=Architects Daughter;fontSource=https%3A%2F%2Ffonts.googleapis.com%2Fcss%3Ffamily%3DArchitects%2BDaughter;fontSize=16;" edge="1" parent="1" source="6SuPDewYfewzEuoH2_-M-1" target="6SuPDewYfewzEuoH2_-M-2">
          <mxGeometry relative="1" as="geometry" />
        </mxCell>
        <mxCell id="6SuPDewYfewzEuoH2_-M-1" value="Products Statistics Service" style="rounded=0;whiteSpace=wrap;html=1;hachureGap=4;fontFamily=Architects Daughter;fontSource=https%3A%2F%2Ffonts.googleapis.com%2Fcss%3Ffamily%3DArchitects%2BDaughter;fontSize=20;fillColor=#dae8fc;strokeColor=#6c8ebf;" vertex="1" parent="1">
          <mxGeometry x="1118" y="135" width="123" height="80" as="geometry" />
        </mxCell>
        <mxCell id="6SuPDewYfewzEuoH2_-M-12" value="" style="edgeStyle=orthogonalEdgeStyle;rounded=0;sketch=1;hachureGap=4;jiggle=2;curveFitting=1;orthogonalLoop=1;jettySize=auto;html=1;fontFamily=Architects Daughter;fontSource=https%3A%2F%2Ffonts.googleapis.com%2Fcss%3Ffamily%3DArchitects%2BDaughter;fontSize=16;" edge="1" parent="1" source="6SuPDewYfewzEuoH2_-M-2" target="6SuPDewYfewzEuoH2_-M-3">
          <mxGeometry relative="1" as="geometry" />
        </mxCell>
        <mxCell id="6SuPDewYfewzEuoH2_-M-2" value="Create a new instance of Products Statistics Director" style="rounded=0;whiteSpace=wrap;html=1;hachureGap=4;fontFamily=Architects Daughter;fontSource=https%3A%2F%2Ffonts.googleapis.com%2Fcss%3Ffamily%3DArchitects%2BDaughter;fontSize=20;fillColor=#dae8fc;strokeColor=#6c8ebf;" vertex="1" parent="1">
          <mxGeometry x="1103.25" y="249" width="152.5" height="130" as="geometry" />
        </mxCell>
        <mxCell id="6SuPDewYfewzEuoH2_-M-13" value="" style="edgeStyle=orthogonalEdgeStyle;rounded=0;sketch=1;hachureGap=4;jiggle=2;curveFitting=1;orthogonalLoop=1;jettySize=auto;html=1;fontFamily=Architects Daughter;fontSource=https%3A%2F%2Ffonts.googleapis.com%2Fcss%3Ffamily%3DArchitects%2BDaughter;fontSize=16;" edge="1" parent="1" source="6SuPDewYfewzEuoH2_-M-3" target="6SuPDewYfewzEuoH2_-M-4">
          <mxGeometry relative="1" as="geometry" />
        </mxCell>
        <mxCell id="6SuPDewYfewzEuoH2_-M-3" value="Create new Products Statistics Builder" style="rounded=0;whiteSpace=wrap;html=1;hachureGap=4;fontFamily=Architects Daughter;fontSource=https%3A%2F%2Ffonts.googleapis.com%2Fcss%3Ffamily%3DArchitects%2BDaughter;fontSize=20;fillColor=#dae8fc;strokeColor=#6c8ebf;" vertex="1" parent="1">
          <mxGeometry x="1098" y="417" width="163" height="93" as="geometry" />
        </mxCell>
        <mxCell id="6SuPDewYfewzEuoH2_-M-14" value="" style="edgeStyle=orthogonalEdgeStyle;rounded=0;sketch=1;hachureGap=4;jiggle=2;curveFitting=1;orthogonalLoop=1;jettySize=auto;html=1;fontFamily=Architects Daughter;fontSource=https%3A%2F%2Ffonts.googleapis.com%2Fcss%3Ffamily%3DArchitects%2BDaughter;fontSize=16;" edge="1" parent="1" source="6SuPDewYfewzEuoH2_-M-4" target="6SuPDewYfewzEuoH2_-M-5">
          <mxGeometry relative="1" as="geometry" />
        </mxCell>
        <mxCell id="6SuPDewYfewzEuoH2_-M-4" value="Set Mocky products in buillder" style="rounded=0;whiteSpace=wrap;html=1;hachureGap=4;fontFamily=Architects Daughter;fontSource=https%3A%2F%2Ffonts.googleapis.com%2Fcss%3Ffamily%3DArchitects%2BDaughter;fontSize=20;fillColor=#dae8fc;strokeColor=#6c8ebf;" vertex="1" parent="1">
          <mxGeometry x="1092" y="533" width="172" height="79" as="geometry" />
        </mxCell>
        <mxCell id="6SuPDewYfewzEuoH2_-M-19" style="edgeStyle=orthogonalEdgeStyle;rounded=0;sketch=1;hachureGap=4;jiggle=2;curveFitting=1;orthogonalLoop=1;jettySize=auto;html=1;exitX=0.5;exitY=1;exitDx=0;exitDy=0;entryX=0.5;entryY=0;entryDx=0;entryDy=0;fontFamily=Architects Daughter;fontSource=https%3A%2F%2Ffonts.googleapis.com%2Fcss%3Ffamily%3DArchitects%2BDaughter;fontSize=16;" edge="1" parent="1" source="6SuPDewYfewzEuoH2_-M-5" target="6SuPDewYfewzEuoH2_-M-10">
          <mxGeometry relative="1" as="geometry" />
        </mxCell>
        <mxCell id="6SuPDewYfewzEuoH2_-M-5" value="Build Products Statistics" style="rounded=0;whiteSpace=wrap;html=1;hachureGap=4;fontFamily=Architects Daughter;fontSource=https%3A%2F%2Ffonts.googleapis.com%2Fcss%3Ffamily%3DArchitects%2BDaughter;fontSize=20;fillColor=#dae8fc;strokeColor=#6c8ebf;" vertex="1" parent="1">
          <mxGeometry x="1090" y="655" width="176" height="60" as="geometry" />
        </mxCell>
        <mxCell id="6SuPDewYfewzEuoH2_-M-15" value="" style="group" vertex="1" connectable="0" parent="1">
          <mxGeometry x="894.5" y="758" width="567" height="174" as="geometry" />
        </mxCell>
        <mxCell id="6SuPDewYfewzEuoH2_-M-10" value="" style="rounded=1;whiteSpace=wrap;html=1;hachureGap=4;fontFamily=Architects Daughter;fontSource=https%3A%2F%2Ffonts.googleapis.com%2Fcss%3Ffamily%3DArchitects%2BDaughter;fontSize=20;fillColor=#d5e8d4;strokeColor=#82b366;" vertex="1" parent="6SuPDewYfewzEuoH2_-M-15">
          <mxGeometry width="567" height="174" as="geometry" />
        </mxCell>
        <mxCell id="6SuPDewYfewzEuoH2_-M-6" value="Find minimal price" style="whiteSpace=wrap;html=1;aspect=fixed;sketch=1;hachureGap=4;jiggle=2;curveFitting=1;fontFamily=Architects Daughter;fontSource=https%3A%2F%2Ffonts.googleapis.com%2Fcss%3Ffamily%3DArchitects%2BDaughter;fontSize=20;" vertex="1" parent="6SuPDewYfewzEuoH2_-M-15">
          <mxGeometry x="52" y="45" width="75" height="75" as="geometry" />
        </mxCell>
        <mxCell id="6SuPDewYfewzEuoH2_-M-7" value="Find maximal price" style="whiteSpace=wrap;html=1;aspect=fixed;sketch=1;hachureGap=4;jiggle=2;curveFitting=1;fontFamily=Architects Daughter;fontSource=https%3A%2F%2Ffonts.googleapis.com%2Fcss%3Ffamily%3DArchitects%2BDaughter;fontSize=20;" vertex="1" parent="6SuPDewYfewzEuoH2_-M-15">
          <mxGeometry x="158" y="42.5" width="80" height="80" as="geometry" />
        </mxCell>
        <mxCell id="6SuPDewYfewzEuoH2_-M-8" value="Find sizes of all the products" style="whiteSpace=wrap;html=1;aspect=fixed;sketch=1;hachureGap=4;jiggle=2;curveFitting=1;fontFamily=Architects Daughter;fontSource=https%3A%2F%2Ffonts.googleapis.com%2Fcss%3Ffamily%3DArchitects%2BDaughter;fontSize=20;" vertex="1" parent="6SuPDewYfewzEuoH2_-M-15">
          <mxGeometry x="262" y="34" width="102" height="102" as="geometry" />
        </mxCell>
        <mxCell id="6SuPDewYfewzEuoH2_-M-9" value="Find commons words with specific conditions" style="whiteSpace=wrap;html=1;aspect=fixed;sketch=1;hachureGap=4;jiggle=2;curveFitting=1;fontFamily=Architects Daughter;fontSource=https%3A%2F%2Ffonts.googleapis.com%2Fcss%3Ffamily%3DArchitects%2BDaughter;fontSize=20;" vertex="1" parent="6SuPDewYfewzEuoH2_-M-15">
          <mxGeometry x="396" y="26" width="131" height="131" as="geometry" />
        </mxCell>
        <mxCell id="6SuPDewYfewzEuoH2_-M-20" value="Builder statistics options" style="text;html=1;strokeColor=none;fillColor=none;align=center;verticalAlign=middle;whiteSpace=wrap;rounded=0;fontSize=20;fontFamily=Architects Daughter;" vertex="1" parent="1">
          <mxGeometry x="1335.5" y="675" width="126" height="92" as="geometry" />
        </mxCell>
        <mxCell id="6SuPDewYfewzEuoH2_-M-24" value="" style="edgeStyle=orthogonalEdgeStyle;rounded=0;sketch=1;hachureGap=4;jiggle=2;curveFitting=1;orthogonalLoop=1;jettySize=auto;html=1;fontFamily=Architects Daughter;fontSource=https%3A%2F%2Ffonts.googleapis.com%2Fcss%3Ffamily%3DArchitects%2BDaughter;fontSize=16;" edge="1" parent="1" source="6SuPDewYfewzEuoH2_-M-21" target="6SuPDewYfewzEuoH2_-M-23">
          <mxGeometry relative="1" as="geometry" />
        </mxCell>
        <mxCell id="6SuPDewYfewzEuoH2_-M-21" value="Build final result for products filters" style="rounded=0;whiteSpace=wrap;html=1;hachureGap=4;fontFamily=Architects Daughter;fontSource=https%3A%2F%2Ffonts.googleapis.com%2Fcss%3Ffamily%3DArchitects%2BDaughter;fontSize=20;fillColor=#dae8fc;strokeColor=#6c8ebf;" vertex="1" parent="1">
          <mxGeometry x="1062" y="983" width="232" height="60" as="geometry" />
        </mxCell>
        <mxCell id="6SuPDewYfewzEuoH2_-M-22" style="edgeStyle=orthogonalEdgeStyle;rounded=0;sketch=1;hachureGap=4;jiggle=2;curveFitting=1;orthogonalLoop=1;jettySize=auto;html=1;exitX=0.5;exitY=1;exitDx=0;exitDy=0;entryX=0.5;entryY=0;entryDx=0;entryDy=0;fontFamily=Architects Daughter;fontSource=https%3A%2F%2Ffonts.googleapis.com%2Fcss%3Ffamily%3DArchitects%2BDaughter;fontSize=16;" edge="1" parent="1" source="6SuPDewYfewzEuoH2_-M-10" target="6SuPDewYfewzEuoH2_-M-21">
          <mxGeometry relative="1" as="geometry" />
        </mxCell>
        <mxCell id="6SuPDewYfewzEuoH2_-M-23" value="Return object that will contain filtered data and products statistics" style="rounded=0;whiteSpace=wrap;html=1;hachureGap=4;fontFamily=Architects Daughter;fontSource=https%3A%2F%2Ffonts.googleapis.com%2Fcss%3Ffamily%3DArchitects%2BDaughter;fontSize=20;fillColor=#dae8fc;strokeColor=#6c8ebf;" vertex="1" parent="1">
          <mxGeometry x="1033.5" y="1085" width="289" height="85" as="geometry" />
        </mxCell>
      </root>
    </mxGraphModel>
  </diagram>
</mxfile>
